<?xml version="1.0" encoding="utf-8"?>
<!-- Generator: Adobe Illustrator 25.2.1, SVG Export Plug-In . SVG Version: 6.00 Build 0)  -->
<svg version="1.1" id="레이어_1" xmlns="http://www.w3.org/2000/svg" xmlns:xlink="http://www.w3.org/1999/xlink" x="0px"
	 y="0px" viewBox="0 0 1257.83 844.34" style="enable-background:new 0 0 1257.83 844.34;" xml:space="preserve">
<style type="text/css">
	.st0{fill:#FFE600;}
</style>
<g>
	<path class="st0" d="M583.66,374.63C583.66,374.63,583.66,374.63,583.66,374.63c-0.04,0.03-0.06,0.04-0.1,0.06
		c-0.01,0.02-0.03,0.05-0.05,0.07C583.56,374.72,583.61,374.67,583.66,374.63z"/>
	<path class="st0" d="M582.97,375.25c0.06-0.05,0.13-0.11,0.2-0.17c-0.01,0.01-0.02,0.02-0.04,0.03
		C583.07,375.15,583.03,375.19,582.97,375.25z"/>
	<path class="st0" d="M583.55,374.7C583.55,374.7,583.55,374.7,583.55,374.7c-0.1,0.08-0.2,0.16-0.3,0.23
		c-0.03,0.03-0.06,0.06-0.08,0.09c0.12-0.09,0.23-0.17,0.33-0.25C583.52,374.75,583.54,374.72,583.55,374.7z"/>
	<path class="st0" d="M583.51,374.76C583.51,374.76,583.51,374.77,583.51,374.76C583.5,374.77,583.5,374.77,583.51,374.76
		c-0.01,0.01-0.01,0.01-0.01,0.01c-0.12,0.11-0.23,0.21-0.36,0.32c0.01-0.01,0.03-0.02,0.04-0.03c0.09-0.08,0.19-0.16,0.29-0.25
		c-0.01,0.01-0.02,0.02-0.03,0.04c0,0,0.01-0.01,0.01-0.01c0.01-0.01,0.02-0.03,0.03-0.04c0.07-0.06,0.13-0.11,0.2-0.17
		C583.64,374.67,583.58,374.71,583.51,374.76C583.51,374.76,583.51,374.76,583.51,374.76z"/>
	<path class="st0" d="M583.18,375.06C583.17,375.07,583.17,375.07,583.18,375.06c0.08-0.06,0.18-0.14,0.26-0.21c0,0,0,0,0-0.01
		C583.37,374.91,583.28,374.98,583.18,375.06z"/>
	<path class="st0" d="M584.54,373.99C584.54,373.99,584.54,373.99,584.54,373.99c-0.03,0.01-0.06,0.03-0.09,0.05
		C584.48,374.02,584.5,374.01,584.54,373.99z"/>
	<path class="st0" d="M583.36,374.95c0.02-0.02,0.03-0.03,0.05-0.05c0,0,0,0,0,0C583.4,374.91,583.38,374.93,583.36,374.95z"/>
	<path class="st0" d="M1229.92,43.61c-5.22,4.09-12.63,10.34-15.12,16.79c-15.95,41.3-31.05,83.11-49.05,123.57
		c-5,11.23-10.24,22.35-15.82,33.31c-5.37,10.54-11.49,21.7-16.89,30.58c-3.22,5.29-6.56,10.52-10.03,15.66
		c-1.55,2.29-3.12,4.56-4.72,6.81c-0.3,0.42-1.37,1.9-1.74,2.42c-0.22,0.3-0.46,0.62-0.55,0.74c-0.59,0.78-1.17,1.55-1.76,2.33
		c-1.64,2.15-3.31,4.28-5.01,6.38c-0.77,0.95-1.56,1.88-2.33,2.83c-0.5,0.57-0.99,1.16-1.49,1.73c-1.65,1.89-3.77,3.7-5.22,5.75
		c-0.08,0.09-0.17,0.17-0.25,0.26c-1.17,1.19-2.34,2.37-3.54,3.54c-0.12,0.11-0.23,0.23-0.35,0.34c-0.87,0.77-1.71,1.57-2.57,2.35
		c-0.18,0.16-2.46,2.07-3.11,2.68c-0.34,0.28-0.68,0.55-1.02,0.83c-0.98,0.78-1.97,1.56-2.96,2.32c-0.83,0.64-2.24,1.63-1.85,1.37
		c-1.99,1.39-3.98,2.78-6.02,4.09c-1.03,0.66-2.08,1.31-3.13,1.95c-0.12,0.07-0.2,0.12-0.27,0.17c-0.43,0.25-0.85,0.49-1.28,0.73
		c-2.43,1.37-4.9,2.66-7.4,3.87c-4.38,2.12-8.88,4.06-13.51,5.59c-10.27,3.4-21,5.42-31.81,5.96c-10.08,0.5-20.91-0.03-29.81-5.29
		c-13.62-8.05-16.02-24.4-18.21-38.69c-2.31-15.11-4.85-32.05-18-41.81c-1.72-1.27-3.55-2.39-5.45-3.35
		c-0.92-0.47-2.03-1.18-3.06-1.27c-2.11-0.18-5.11,2.04-6.81,3.05c-6.34,3.81-12.2,8.52-17.64,13.52
		c-7.44,6.83-14.36,14.28-20.58,22.27c2.56-10.73,4.37-21.63,5.63-32.5c3.74-32.3,2.71-65.4-3.37-97.36
		c-5.96-31.33-16.64-64.17-39.02-87.79c-2.64-2.78-14.53,9.37-15.41,10.27c-8.81,9.11-16.25,18.86-20.06,31.05
		c-2.83,9.07-3.57,18.71-3.53,28.17c0.1,22.44,4.51,44.81,9.47,66.61c3.96,17.42,9.06,34.61,12.56,52.13
		c4.16,20.79,10.41,41.09,15.05,61.78c1.4,6.23,2.69,12.51,3.77,18.81c-0.05,0.13-0.1,0.26-0.15,0.38
		c-2.28,5.52-4.87,10.9-7.79,16.11c-0.08,0.14-0.14,0.24-0.19,0.35c-0.03,0.05-0.06,0.09-0.1,0.16c-0.35,0.56-0.69,1.13-1.04,1.69
		c-0.78,1.24-1.58,2.47-2.42,3.67c-0.95,1.37-1.74,2.42-2.83,3.77c0.03-0.02,0.07-0.05,0.1-0.07c-0.04,0.03-0.07,0.05-0.11,0.08
		c-0.02,0.03-0.04,0.05-0.07,0.08c-0.01,0.01-0.01,0.01-0.02,0.02c0.02-0.03,0.04-0.05,0.06-0.08c-0.06,0.04-0.12,0.08-0.18,0.12
		c-0.03,0.03-0.05,0.07-0.08,0.11c-0.01,0.01-0.02,0.02-0.03,0.02c0.01-0.01,0.02-0.02,0.03-0.02c-0.02,0.02-0.03,0.05-0.05,0.07
		c0.04-0.03,0.1-0.07,0.18-0.12c0.02-0.03,0.05-0.06,0.07-0.1c0.01-0.01,0.01-0.01,0.02-0.01c-0.03,0.04-0.05,0.07-0.08,0.1
		c0.14-0.09,0.32-0.22,0.58-0.4c-0.22,0.16-0.41,0.29-0.58,0.41c-0.05,0.06-0.09,0.12-0.15,0.18c0.04-0.05,0.09-0.11,0.14-0.18
		c-0.07,0.05-0.12,0.08-0.18,0.13c-0.12,0.15-0.24,0.32-0.39,0.51c0.15-0.19,0.26-0.35,0.36-0.5c-0.96,0.67-1.09,0.75-2.14,1.31
		c-3.03,1.63-6.13,2.8-9.5,3.48c-6.07,1.22-12.35,0.95-18.24-0.99c-14.71-4.83-25.99-17.13-33.88-30
		c-9.78-15.95-15.4-34.34-16.79-52.95c-0.2-2.69-3.81-0.7-7.05,1.66c-3.31-7.36-8.07-13.83-15.15-16.95
		c-12.3-5.42-24.99,2.76-34.31,10.31c-15.88,12.87-29.66,29.67-37.31,48.76c-6.08,15.17-9.13,31.73-6.61,48.02
		c2.67,17.2,11.15,31.81,24.43,43.04c8.48,7.17,18.66,11.76,29.13,6.51c-0.82,1.32-1.66,2.62-2.51,3.92
		c-0.73,1.11-1.48,2.2-2.23,3.29c-0.2,0.29-1.1,1.54-1.41,1.98c-1.29,1.72-2.62,3.4-3.95,5.09c-0.2,0.26-0.57,0.7-0.87,1.06
		c-0.62,0.72-1.25,1.44-1.88,2.16c-0.62,0.7-1.27,1.38-1.9,2.07c-0.07,0.06-0.11,0.11-0.19,0.18c-0.83,0.82-1.69,1.95-2.64,2.65
		c-0.18,0.14-0.34,0.27-0.47,0.38c-0.57,0.52-1.16,1.03-1.74,1.54c0.81-0.72-1.41,1.21-1.86,1.58c-0.65,0.52-4.42,3.4-3.67,2.88
		c-3.76,2.72-7.78,5.31-10.96,7.08c-7.8,4.33-16.02,7.89-24.63,10.24c-17.6,4.79-36.44,4.87-54-0.17
		c-12.15-3.48-23.91-9.79-31.41-20.25c-6.32-8.81-8.71-19.41-8.08-30.14c0.32-5.45,1.36-10.84,2.92-16.06
		c1.36-4.56,3.24-9.04,6.02-14.21c0.36-0.66,0.74-1.31,1.09-1.97c0.03-0.04,0.04-0.06,0.07-0.11c0.7-1.04,1.34-2.13,2.04-3.17
		c0.42-0.62,0.86-1.23,1.28-1.85c0.04-0.05,0.06-0.09,0.09-0.13c-0.01,0-0.01,0.01-0.02,0.01c-0.38,0.55-0.92,1.33-0.95,1.31
		c-0.16-0.12,0.1-0.52,0.53-1c-0.03,0.02-0.05,0.04-0.08,0.06c0.03-0.02,0.05-0.04,0.08-0.06c0.06-0.06,0.11-0.13,0.17-0.19
		c-0.82,0.61-1.96,1.48-0.31,0.22c0.13-0.1,0.26-0.2,0.39-0.3c0.04-0.04,0.07-0.08,0.11-0.12c0.06-0.04,0.12-0.07,0.18-0.11
		c0,0,0,0,0,0c0,0,0,0,0,0c0,0,0,0,0.01,0c0,0,0,0,0,0c0.08-0.07,0.17-0.13,0.25-0.2c-0.05,0.04-0.1,0.09-0.15,0.14
		c0.04-0.02,0.08-0.05,0.13-0.08c0.06-0.05,0.12-0.1,0.18-0.15c0.38-0.34,0.81-0.73,1.15-1.04c-0.27,0.25-0.64,0.58-1.11,1.01
		c1.07-0.87,2.07-1.61,0.54-0.39c1.09-0.58,2.16-1.19,3.27-1.72c0.93-0.44,1.88-0.84,2.83-1.22c0.06-0.02,0.1-0.04,0.15-0.06
		c0.07-0.02,0.13-0.04,0.22-0.06c0.57-0.17,1.14-0.35,1.71-0.5c3.99-1.05,8.41-1.47,12.42-0.67c1.8,0.36,3.7,1.05,5.41,1.86
		c1,0.47,2.33,1,3.15,1.76c1.76,1.64,1.68,4.2,1.76,6.64c0.15,4.35-0.49,8.79-2.05,12.86c-0.59,1.53-2.11,4.46-2.45,5.02
		c0.06-0.1-0.66,0.97-1.12,1.66c-0.61,0.69-2.99,3.68-0.38,0.66c-0.64,0.74-1.28,1.54-1.96,2.28c-0.32,0.29-0.67,0.61-0.88,0.83
		c-1.81,1.82-3.63,3.64-5.52,5.38c3.72-3.43-1.81,1.7-2.53,2.38c-2.8,2.64-5.6,5.29-8.33,7.99c-1.95,1.93-12.84,12.11-10.27,15.41
		c2.22,2.86,14.69-9.57,15.41-10.27c0.95-0.94,1.91-1.86,2.86-2.8c0.09-0.08,0.16-0.16,0.24-0.23c0.07-0.07,0.14-0.13,0.22-0.21
		c2.86-2.69,5.72-5.39,8.56-8.1c5.19-4.97,10.22-10.12,14.89-15.58c8.59-10.03,17.57-21.76,19.23-35.31
		c0.49-3.96,1.05-11.49-1.98-14.29c-1.72-1.59-4.73-2.55-6.92-3.2c-4.77-1.4-9.76-1.62-14.63-0.6c-15.22,3.18-28.33,14.58-39,25.21
		c-11.76,11.71-22.32,25.43-28.67,40.87c-9.52,23.13-9.87,51.71,11.86,68.13c13.84,10.46,32.85,14.33,49.88,14.6
		c21.11,0.33,41.76-6.55,59.85-17.12c23.27-13.6,43.46-32.53,60.27-53.49c9.53-11.88,17.8-24.75,24.41-38.43
		c2.14-4.01,3.96-8.14,5.4-12.31c0.01-0.03,0.02-0.07,0.03-0.1c1.39-3.53,2.68-7.11,3.84-10.74c0.03-0.1,0.06-0.2,0.09-0.3
		c6.59,9.17,14.83,16.82,24.92,21.7c13.21,6.38,27.69,5.29,40.4-1.78c13.88-7.72,26.33-19.08,36.64-31.82
		c-1.45,6.67-2.42,13.42-2.81,20.18c-0.3,5.24-0.17,10.49,0.6,15.69c0.63,4.27,9.44-3.54,10.46-4.41
		c5.3-4.47,12.3-10.49,14.98-17.09c5.46-13.42,5.66-28.2,4.05-42.67c1.9-7.05,4.3-13.92,6.95-20.41
		c4.36-10.67,9.35-20.07,15.49-29.14c0.23-0.33,0.47-0.66,0.7-0.99c0.12-0.16,0.27-0.36,0.47-0.62c0.77-0.97,1.55-1.95,2.32-2.93
		c-2.52,3.21-0.49,0.65,0.26-0.26c0.42-0.32,1.06-0.81,1.36-1.01c0.05-0.04,0.11-0.07,0.17-0.11
		c26.41,12.63,20.71,43.86,29.38,67.29c12.37,33.44,59.56,24.05,85.2,14.09c39.25-15.24,71.72-48.26,96.42-81.42
		c25.08-33.67,44.37-71.14,60.94-109.6c8.64-20.05,16.55-40.39,24.21-60.83c6.37-17,12.12-35.16,18.41-51.45
		C1239.7,36.38,1231.56,42.32,1229.92,43.61z M705.73,367.56c-7.87-12.58-10.62-27.36-9.48-42.03c0.55-7.02,1.94-13.96,4.04-20.68
		c0.91-2.89,1.92-5.52,3.28-8.56c0.62-1.38,1.27-2.75,1.95-4.11c0.4-0.8,0.84-1.59,1.25-2.38c0.23-0.42,0.47-0.84,0.7-1.26
		c0.48-0.77,0.96-1.54,1.46-2.29c0.51-0.24,1.02-0.48,1.54-0.7c-0.21,0.13,2.12-0.57,2.62-0.66c10.5-1.98,18.41,5.58,23.2,14.2
		c5.1,9.17,7.95,19.61,9.2,30.2c-0.42,12.64-1.57,25.26-3.4,37.64c-1.27,8.61-2.97,17.52-5.57,25.4c-0.1,0.25-0.19,0.5-0.29,0.74
		c-0.4-0.06-0.8-0.13-1.2-0.23C722.98,389.95,711.97,377.54,705.73,367.56z M876.27,234.54c-3.79-15.61-7.19-31.31-11.05-46.91
		c-5.2-20.99-10.05-42.17-12.23-63.72c-0.76-7.44-1.21-14.97-1.02-22.46c10.55,16.26,17.46,35,22.24,53.6
		c7.54,29.33,9.99,60.06,8.65,90.27c-0.18,4.07-0.43,8.15-0.75,12.24C880.12,249.89,878.14,242.23,876.27,234.54z"/>
	<path class="st0" d="M583.14,375.1c-0.04,0.03-0.09,0.07-0.14,0.11c0,0,0,0,0,0C583.04,375.17,583.09,375.13,583.14,375.1
		C583.13,375.1,583.14,375.1,583.14,375.1z"/>
	<path class="st0" d="M583.41,374.9c0,0,0.01-0.01,0.02-0.01c0.01-0.01,0.02-0.02,0.02-0.04c0,0-0.01,0.01-0.01,0.01
		C583.43,374.87,583.42,374.88,583.41,374.9z"/>
	<path class="st0" d="M852.11,354.28C852.11,354.28,852.12,354.28,852.11,354.28c0,0-0.01,0.01-0.02,0.01c0,0,0,0.01-0.01,0.01
		C852.09,354.29,852.1,354.29,852.11,354.28z"/>
	<path class="st0" d="M851.74,354.62c0.01-0.02,0.03-0.04,0.04-0.06C851.64,354.67,851.59,354.72,851.74,354.62z"/>
	<path class="st0" d="M584.54,373.99c-0.16,0.13-0.35,0.28-0.57,0.45C585.01,373.82,587.29,372.53,584.54,373.99z"/>
	<path class="st0" d="M851.91,354.43c0-0.01,0.01-0.01,0.01-0.02c-0.02,0.01-0.03,0.02-0.05,0.03c0,0.01-0.01,0.01-0.01,0.02
		C851.87,354.45,851.89,354.44,851.91,354.43z"/>
	<path class="st0" d="M851.92,354.41c0.05-0.04,0.11-0.07,0.17-0.12C852.49,353.75,852.84,353.2,851.92,354.41z"/>
	<polygon class="st0" points="851.95,354.49 851.95,354.48 851.95,354.48 851.94,354.49 	"/>
	<path class="st0" d="M851.77,354.6c-0.01,0.01-0.02,0.01-0.02,0.02c0,0.01-0.01,0.01-0.01,0.02c0.01-0.01,0.02-0.01,0.03-0.02
		C851.76,354.61,851.76,354.61,851.77,354.6z"/>
	<polygon class="st0" points="851.79,354.56 851.79,354.56 851.79,354.55 	"/>
	<path class="st0" d="M851.87,354.44c1.3-1.88-1.7,1.28-0.08,0.12c0.03-0.04,0.04-0.06,0.07-0.1
		C851.48,354.72,851.28,354.84,851.87,354.44z"/>
</g>
<g>
	<path class="st0" d="M506.58,412.64c-5.32-13.88-11.2-27.58-17.24-41.24c0.05-1,0.12-2,0.16-3c1.94-50.14-8.24-106.64-42.21-145.47
		c-4.14-4.73-8.64-9.11-13.44-13.17c-2.82-2.38-12.31,7.34-13.66,8.61c-2.8,2.65-5.5,5.45-7.88,8.49c-1.35,1.72-4.62,5.15-4.37,7.44
		c6.42,57.17,32.2,109.28,55.17,161.35c-0.6,10.44-1.82,20.84-3.7,31.18c-3.41,18.67-8.3,37.57-17.3,54.39
		c-0.16,0.29-0.8,1.46-1.05,1.91c-0.24,0.39-0.81,1.33-1.05,1.71c-4.49,1.88-9.78,2.81-14.71,1.77
		c-10.18-2.15-16.49-11.9-20.45-20.73c-11.11-24.78-12.39-52.87-19.42-78.85c-2.34-8.64-5.34-19.99-13.1-25.48
		c-10.19-7.22-23.09,1.92-31.22,8.06c-3.84,2.89-7.5,6.04-11,9.33c-3.4,3.21-6.75,6.46-9.64,10.15c-0.87,1.11-4.59,5.48-4.37,7.44
		c0.52,4.54,11.44-5.16,12.13-5.81c0.77-0.73,1.56-1.43,2.34-2.16c0.18-0.16,0.31-0.29,0.42-0.39c0.17-0.1,0.38-0.23,0.64-0.41
		c0.26-0.18,0.47-0.31,0.65-0.43c-0.17,0.09-0.38,0.2-0.65,0.34c0.28-0.14,0.55-0.3,0.83-0.45c0.31-0.19,0.43-0.24,0.3-0.16
		c0.16-0.09,0.32-0.18,0.49-0.26c0.6-0.29,1.22-0.56,1.82-0.84c0.1-0.05,0.18-0.08,0.25-0.12c0.03-0.01,0.05-0.01,0.08-0.02
		c4.33-1.1,7.06-1.24,10.56,0.96c8.19,5.13,11.32,16.92,13.69,25.6c7.24,26.54,8.26,55.59,20.2,80.69
		c4.51,9.49,11.29,18.02,22.22,19.71c7.46,1.15,15.12-1.14,21.6-4.78c12.71-7.14,23.69-18.15,32.47-29.67
		c10.47-13.71,17.43-29.49,22.42-45.89c18.37,46.87,31.61,96.43,24.87,147.06c-1.53,11.47-4.08,22.88-7.94,33.79
		c-1.87,5.27-4.08,10.43-6.53,15.45c-1.2,2.47-2.47,4.91-3.79,7.32c-1.61,2.93-1.64,2.98-3.61,6.08c-1.48,2.33-3.02,4.61-4.6,6.87
		c-0.27,0.39-0.55,0.77-0.83,1.16c-0.04,0.05-0.08,0.1-0.12,0.16c-0.97,1.26-1.93,2.53-2.92,3.77c-0.75,0.94-1.51,1.86-2.26,2.79
		c-0.04,0.04-0.06,0.07-0.09,0.11c-0.15,0.16-0.34,0.38-0.62,0.69c-0.94,1.06-1.88,2.12-2.83,3.16c-0.09,0.1-0.23,0.27-0.38,0.46
		c-0.12,0.11-0.28,0.26-0.49,0.48c-1.02,1.02-2.02,2.05-3.04,3.06c-0.59,0.58-1.19,1.14-1.78,1.73c-1.48,1.48,1.27-1.22,1.25-1.18
		c-1.38,2.37-5.05,4.44-7.04,6.31c-0.01,0.01-0.01,0.01-0.02,0.02c-0.35,0.29-0.7,0.59-1.06,0.88c-1.16,0.96-2.34,1.9-3.52,2.84
		c-2.38,1.89-4.79,3.73-7.23,5.53c-0.34,0.24-2.05,1.46-2.45,1.75c-1.29,0.91-2.58,1.8-3.88,2.69c-2.64,1.8-5.3,3.57-7.99,5.29
		c-5.47,3.51-10.72,6.69-16.27,9.82c-14.48,8.19-29.41,15.56-44.85,21.78c-31.38,12.65-64.64,20.37-98.21,24.26
		c-67.56,7.83-135.14-0.43-202.22-8.8c-8.72-1.09-17.44-2.22-26.15-3.38c-1.74-0.23-5.78,3.21-6.75,3.97
		c-3.31,2.59-6.43,5.62-9.22,8.75c-1.29,1.44-9.27,10.29-5.28,11.02c68.79,12.44,138.79,21.71,208.83,16.25
		c68.13-5.31,133.22-26.99,190.19-64.89c45.51-30.28,87.86-72.58,103.99-126.08C540.75,526.95,527.13,466.23,506.58,412.64z"/>
	<path class="st0" d="M332.3,387.34c0.24-0.13,0.41-0.23,0.48-0.27c-0.1,0.05-0.2,0.1-0.3,0.16
		C332.43,387.26,332.36,387.3,332.3,387.34z"/>
</g>
</svg>
